<svg xmlns="http://www.w3.org/2000/svg" xmlns:xlink="http://www.w3.org/1999/xlink" version="1.1" x="0px" y="0px" viewBox="0 0 100 100" style="enable-background:new 0 0 100 100;" xml:space="preserve"><g><path d="M89.6,49.4C89.6,49.4,89.6,49.4,89.6,49.4c-1.2-7.6-4.1-18.4-11.2-27.1c-7.1-8.6-16.7-13-28.4-13s-21.3,4.4-28.4,13   c-7.1,8.6-10,19.5-11.2,27.1c-1.5,9.6,0.9,18.4,6.9,25.4c7.3,8.6,19.9,13.9,32.7,13.9s25.3-5.3,32.7-13.9   C88.7,67.8,91.1,59,89.6,49.4z M80.7,70.9c-0.1-0.8-0.3-1.5-0.5-2.3c-1-3.1-3.1-5.5-6-7c-1-0.5-2.2-0.1-2.7,0.9   c-0.5,1-0.1,2.2,0.9,2.7c1.9,1,3.4,2.6,4,4.6c0.6,2,0.5,4-0.4,5.9c-1.8,1.5-3.7,2.8-5.8,3.9c0.4-1.4,0.6-2.8,0.6-4.2   c0-3.9-1.5-7.5-4.3-10.2c-0.8-0.8-2.1-0.8-2.8,0c-0.8,0.8-0.8,2.1,0,2.8c2,2,3.1,4.6,3.1,7.3c0,2.5-0.9,5-2.6,6.8   c-4.5,1.5-9.3,2.4-14.2,2.4s-9.7-0.9-14.2-2.4c-1.7-1.9-2.6-4.3-2.6-6.8c0-2.8,1.1-5.4,3.1-7.3c0.8-0.8,0.8-2,0-2.8   c-0.8-0.8-2-0.8-2.8,0c-2.8,2.7-4.3,6.3-4.3,10.2c0,1.4,0.2,2.9,0.6,4.2c-2.1-1.1-4-2.4-5.8-3.9c-0.9-1.9-1-3.9-0.4-5.9   c0.7-2,2.1-3.7,4-4.6c1-0.5,1.4-1.7,0.9-2.7c-0.5-1-1.7-1.4-2.7-0.9c-2.9,1.4-5,3.9-6,7c-0.2,0.7-0.4,1.5-0.5,2.3   c-1.3-1.7-2.3-3.5-3.2-5.4c0,0,0,0,0-0.1c-0.2-1.1,0.1-2.2,0.8-3c0.7-0.9,1.6-1.4,2.7-1.6c1.1-0.1,1.9-1.1,1.7-2.2   c-0.1-1.1-1.1-1.9-2.2-1.7c-1.9,0.2-3.6,1.1-4.9,2.4c-0.5-3-0.5-6.1,0-9.3c1.7-11,8.6-36.7,35.6-36.7S83.9,38.9,85.6,50   c0.5,3.2,0.5,6.4,0,9.3c-1.3-1.3-3-2.2-4.9-2.4c-1.1-0.1-2.1,0.6-2.2,1.7s0.6,2.1,1.7,2.2c1.1,0.1,2.1,0.7,2.7,1.6   c0.7,0.9,0.9,1.9,0.8,3c0,0,0,0,0,0.1C83,67.4,81.9,69.2,80.7,70.9z"/><path d="M78.8,38.5c-4.3-15-14-22.6-28.8-22.6c0,0,0,0,0,0c-14.8,0-24.5,7.6-28.8,22.6c-1.6,5.5-1,10.2,1.8,13.9   c5.3,7.1,17.6,8.5,27,8.5c9.4,0,21.7-1.5,27-8.5C79.8,48.7,80.4,44,78.8,38.5z M73.8,49.9C70.4,54.4,62,56.9,50,56.9   c-12,0-20.4-2.5-23.8-6.9c-2-2.6-2.4-6-1.1-10.4c2-7.1,5.2-12.2,9.7-15.4l10.6,3.4c0.2,0.1,0.4,0.1,0.6,0.1c0.8,0,1.6-0.5,1.9-1.4   c0.3-1.1-0.2-2.2-1.3-2.5l-6.9-2.3c3-1.1,6.5-1.7,10.4-1.7c0,0,0,0,0,0c3.9,0,7.4,0.6,10.4,1.7l-6.9,2.3c-1.1,0.3-1.6,1.5-1.3,2.5   c0.3,0.8,1.1,1.4,1.9,1.4c0.2,0,0.4,0,0.6-0.1l10.6-3.4c4.5,3.2,7.6,8.3,9.7,15.4C76.2,43.9,75.8,47.3,73.8,49.9z"/><path d="M46.3,36.4c0-5.2-4.2-9.4-9.4-9.4s-9.4,4.2-9.4,9.4s4.2,9.4,9.4,9.4S46.3,41.6,46.3,36.4z M31.5,36.4c0-3,2.4-5.4,5.4-5.4   s5.4,2.4,5.4,5.4s-2.4,5.4-5.4,5.4S31.5,39.4,31.5,36.4z"/><path d="M63.1,27c-5.2,0-9.4,4.2-9.4,9.4s4.2,9.4,9.4,9.4c5.2,0,9.4-4.2,9.4-9.4S68.3,27,63.1,27z M63.1,41.8c-3,0-5.4-2.4-5.4-5.4   s2.4-5.4,5.4-5.4c3,0,5.4,2.4,5.4,5.4S66.1,41.8,63.1,41.8z"/><path d="M45.3,45.6l-11,3.6c-1.1,0.3-1.6,1.5-1.3,2.5c0.3,0.8,1.1,1.4,1.9,1.4c0.2,0,0.4,0,0.6-0.1l11-3.6c1.1-0.3,1.6-1.5,1.3-2.5   C47.5,45.8,46.4,45.3,45.3,45.6z"/><path d="M65.7,49.2l-11-3.6c-1.1-0.3-2.2,0.2-2.5,1.3c-0.3,1.1,0.2,2.2,1.3,2.5l11,3.6c0.2,0.1,0.4,0.1,0.6,0.1   c0.8,0,1.6-0.5,1.9-1.4C67.3,50.7,66.8,49.5,65.7,49.2z"/></g><circle cx="63.1" cy="36.4" r="3.7"/></svg>
